<mxfile host="app.diagrams.net" agent="Mozilla/5.0 (Macintosh; Intel Mac OS X 10_15_7) AppleWebKit/537.36 (KHTML, like Gecko) Chrome/141.0.0.0 Safari/537.36" version="28.2.0">
  <diagram name="Page-1" id="KKf2wwnTOpNtSrnNZWtW">
    <mxGraphModel dx="946" dy="638" grid="1" gridSize="10" guides="1" tooltips="1" connect="1" arrows="1" fold="1" page="1" pageScale="1" pageWidth="850" pageHeight="1100" math="0" shadow="0">
      <root>
        <mxCell id="0" />
        <mxCell id="1" parent="0" />
        <mxCell id="jeg0a33iSLmDCc6YFEvt-9" style="edgeStyle=none;curved=1;rounded=0;orthogonalLoop=1;jettySize=auto;html=1;fontSize=12;startSize=8;endSize=8;endArrow=none;endFill=0;" edge="1" parent="1" source="jeg0a33iSLmDCc6YFEvt-1" target="jeg0a33iSLmDCc6YFEvt-7">
          <mxGeometry relative="1" as="geometry" />
        </mxCell>
        <mxCell id="jeg0a33iSLmDCc6YFEvt-1" value="loans" style="rounded=0;whiteSpace=wrap;html=1;" vertex="1" parent="1">
          <mxGeometry x="370" y="265" width="120" height="60" as="geometry" />
        </mxCell>
        <mxCell id="jeg0a33iSLmDCc6YFEvt-5" style="edgeStyle=none;curved=1;rounded=0;orthogonalLoop=1;jettySize=auto;html=1;fontSize=12;shape=wire;dashed=1;endArrow=none;endFill=0;" edge="1" parent="1" source="jeg0a33iSLmDCc6YFEvt-2" target="jeg0a33iSLmDCc6YFEvt-4">
          <mxGeometry relative="1" as="geometry" />
        </mxCell>
        <mxCell id="jeg0a33iSLmDCc6YFEvt-6" style="edgeStyle=none;curved=1;rounded=0;orthogonalLoop=1;jettySize=auto;html=1;fontSize=12;startSize=8;endSize=8;endArrow=none;endFill=0;" edge="1" parent="1" source="jeg0a33iSLmDCc6YFEvt-2" target="jeg0a33iSLmDCc6YFEvt-1">
          <mxGeometry relative="1" as="geometry" />
        </mxCell>
        <mxCell id="jeg0a33iSLmDCc6YFEvt-2" value="has" style="rhombus;whiteSpace=wrap;html=1;" vertex="1" parent="1">
          <mxGeometry x="130" y="240" width="125" height="110" as="geometry" />
        </mxCell>
        <mxCell id="jeg0a33iSLmDCc6YFEvt-8" style="edgeStyle=none;curved=1;rounded=0;orthogonalLoop=1;jettySize=auto;html=1;fontSize=12;startSize=8;endSize=8;endArrow=none;endFill=0;" edge="1" parent="1" source="jeg0a33iSLmDCc6YFEvt-3" target="jeg0a33iSLmDCc6YFEvt-7">
          <mxGeometry relative="1" as="geometry" />
        </mxCell>
        <mxCell id="jeg0a33iSLmDCc6YFEvt-3" value="patrons" style="rounded=0;whiteSpace=wrap;html=1;" vertex="1" parent="1">
          <mxGeometry x="602.5" y="460" width="120" height="60" as="geometry" />
        </mxCell>
        <mxCell id="jeg0a33iSLmDCc6YFEvt-20" style="edgeStyle=none;curved=1;rounded=0;orthogonalLoop=1;jettySize=auto;html=1;fontSize=12;startSize=8;endSize=8;endArrow=none;endFill=0;" edge="1" parent="1" source="jeg0a33iSLmDCc6YFEvt-4" target="jeg0a33iSLmDCc6YFEvt-17">
          <mxGeometry relative="1" as="geometry" />
        </mxCell>
        <mxCell id="jeg0a33iSLmDCc6YFEvt-21" style="edgeStyle=none;curved=1;rounded=0;orthogonalLoop=1;jettySize=auto;html=1;fontSize=12;startSize=8;endSize=8;endArrow=none;endFill=0;" edge="1" parent="1" source="jeg0a33iSLmDCc6YFEvt-4" target="jeg0a33iSLmDCc6YFEvt-16">
          <mxGeometry relative="1" as="geometry" />
        </mxCell>
        <mxCell id="jeg0a33iSLmDCc6YFEvt-22" style="edgeStyle=none;curved=1;rounded=0;orthogonalLoop=1;jettySize=auto;html=1;fontSize=12;startSize=8;endSize=8;endArrow=none;endFill=0;" edge="1" parent="1" source="jeg0a33iSLmDCc6YFEvt-4" target="jeg0a33iSLmDCc6YFEvt-12">
          <mxGeometry relative="1" as="geometry" />
        </mxCell>
        <mxCell id="jeg0a33iSLmDCc6YFEvt-23" style="edgeStyle=none;curved=1;rounded=0;orthogonalLoop=1;jettySize=auto;html=1;fontSize=12;startSize=8;endSize=8;endArrow=none;endFill=0;" edge="1" parent="1" source="jeg0a33iSLmDCc6YFEvt-4" target="jeg0a33iSLmDCc6YFEvt-13">
          <mxGeometry relative="1" as="geometry" />
        </mxCell>
        <mxCell id="jeg0a33iSLmDCc6YFEvt-24" style="edgeStyle=none;curved=1;rounded=0;orthogonalLoop=1;jettySize=auto;html=1;fontSize=12;startSize=8;endSize=8;endArrow=none;endFill=0;" edge="1" parent="1" source="jeg0a33iSLmDCc6YFEvt-4" target="jeg0a33iSLmDCc6YFEvt-14">
          <mxGeometry relative="1" as="geometry">
            <mxPoint x="350" y="630" as="targetPoint" />
          </mxGeometry>
        </mxCell>
        <mxCell id="jeg0a33iSLmDCc6YFEvt-25" style="edgeStyle=none;curved=1;rounded=0;orthogonalLoop=1;jettySize=auto;html=1;fontSize=12;startSize=8;endSize=8;endArrow=none;endFill=0;" edge="1" parent="1" source="jeg0a33iSLmDCc6YFEvt-4" target="jeg0a33iSLmDCc6YFEvt-15">
          <mxGeometry relative="1" as="geometry" />
        </mxCell>
        <mxCell id="jeg0a33iSLmDCc6YFEvt-26" style="edgeStyle=none;curved=1;rounded=0;orthogonalLoop=1;jettySize=auto;html=1;fontSize=12;startSize=8;endSize=8;endArrow=none;endFill=0;" edge="1" parent="1" source="jeg0a33iSLmDCc6YFEvt-4" target="jeg0a33iSLmDCc6YFEvt-18">
          <mxGeometry relative="1" as="geometry" />
        </mxCell>
        <mxCell id="jeg0a33iSLmDCc6YFEvt-4" value="books" style="rounded=0;whiteSpace=wrap;html=1;" vertex="1" parent="1">
          <mxGeometry x="130" y="460" width="120" height="60" as="geometry" />
        </mxCell>
        <mxCell id="jeg0a33iSLmDCc6YFEvt-7" value="has" style="rhombus;whiteSpace=wrap;html=1;" vertex="1" parent="1">
          <mxGeometry x="600" y="240" width="125" height="110" as="geometry" />
        </mxCell>
        <mxCell id="jeg0a33iSLmDCc6YFEvt-12" value="book_id" style="ellipse;whiteSpace=wrap;html=1;align=center;fontStyle=4" vertex="1" parent="1">
          <mxGeometry x="40" y="530" width="70" height="40" as="geometry" />
        </mxCell>
        <mxCell id="jeg0a33iSLmDCc6YFEvt-13" value="title" style="ellipse;whiteSpace=wrap;html=1;align=center;fontStyle=0" vertex="1" parent="1">
          <mxGeometry x="120" y="570" width="70" height="40" as="geometry" />
        </mxCell>
        <mxCell id="jeg0a33iSLmDCc6YFEvt-14" value="author" style="ellipse;whiteSpace=wrap;html=1;align=center;fontStyle=0" vertex="1" parent="1">
          <mxGeometry x="210" y="580" width="70" height="40" as="geometry" />
        </mxCell>
        <mxCell id="jeg0a33iSLmDCc6YFEvt-15" value="isbn" style="ellipse;whiteSpace=wrap;html=1;align=center;fontStyle=0" vertex="1" parent="1">
          <mxGeometry x="280" y="530" width="70" height="40" as="geometry" />
        </mxCell>
        <mxCell id="jeg0a33iSLmDCc6YFEvt-16" value="genre" style="ellipse;whiteSpace=wrap;html=1;align=center;fontStyle=0" vertex="1" parent="1">
          <mxGeometry x="20" y="460" width="70" height="40" as="geometry" />
        </mxCell>
        <mxCell id="jeg0a33iSLmDCc6YFEvt-17" value="publication_date" style="ellipse;whiteSpace=wrap;html=1;align=center;fontStyle=0" vertex="1" parent="1">
          <mxGeometry x="40" y="390" width="110" height="40" as="geometry" />
        </mxCell>
        <mxCell id="jeg0a33iSLmDCc6YFEvt-18" value="total_copies" style="ellipse;whiteSpace=wrap;html=1;align=center;fontStyle=0" vertex="1" parent="1">
          <mxGeometry x="280" y="440" width="110" height="40" as="geometry" />
        </mxCell>
        <mxCell id="jeg0a33iSLmDCc6YFEvt-35" style="edgeStyle=none;curved=1;rounded=0;orthogonalLoop=1;jettySize=auto;html=1;fontSize=12;startSize=8;endSize=8;endArrow=none;endFill=0;" edge="1" parent="1" source="jeg0a33iSLmDCc6YFEvt-27" target="jeg0a33iSLmDCc6YFEvt-3">
          <mxGeometry relative="1" as="geometry" />
        </mxCell>
        <mxCell id="jeg0a33iSLmDCc6YFEvt-27" value="patron_id" style="ellipse;whiteSpace=wrap;html=1;align=center;fontStyle=4" vertex="1" parent="1">
          <mxGeometry x="600" y="570" width="70" height="40" as="geometry" />
        </mxCell>
        <mxCell id="jeg0a33iSLmDCc6YFEvt-34" style="edgeStyle=none;curved=1;rounded=0;orthogonalLoop=1;jettySize=auto;html=1;fontSize=12;startSize=8;endSize=8;endArrow=none;endFill=0;" edge="1" parent="1" source="jeg0a33iSLmDCc6YFEvt-28" target="jeg0a33iSLmDCc6YFEvt-3">
          <mxGeometry relative="1" as="geometry" />
        </mxCell>
        <mxCell id="jeg0a33iSLmDCc6YFEvt-28" value="name" style="ellipse;whiteSpace=wrap;html=1;align=center;fontStyle=0" vertex="1" parent="1">
          <mxGeometry x="510" y="540" width="70" height="40" as="geometry" />
        </mxCell>
        <mxCell id="jeg0a33iSLmDCc6YFEvt-36" style="edgeStyle=none;curved=1;rounded=0;orthogonalLoop=1;jettySize=auto;html=1;fontSize=12;startSize=8;endSize=8;endArrow=none;endFill=0;" edge="1" parent="1" source="jeg0a33iSLmDCc6YFEvt-29" target="jeg0a33iSLmDCc6YFEvt-3">
          <mxGeometry relative="1" as="geometry" />
        </mxCell>
        <mxCell id="jeg0a33iSLmDCc6YFEvt-29" value="address" style="ellipse;whiteSpace=wrap;html=1;align=center;fontStyle=0" vertex="1" parent="1">
          <mxGeometry x="710" y="560" width="70" height="40" as="geometry" />
        </mxCell>
        <mxCell id="jeg0a33iSLmDCc6YFEvt-37" style="edgeStyle=none;curved=1;rounded=0;orthogonalLoop=1;jettySize=auto;html=1;fontSize=12;startSize=8;endSize=8;endArrow=none;endFill=0;" edge="1" parent="1" source="jeg0a33iSLmDCc6YFEvt-30" target="jeg0a33iSLmDCc6YFEvt-3">
          <mxGeometry relative="1" as="geometry" />
        </mxCell>
        <mxCell id="jeg0a33iSLmDCc6YFEvt-30" value="email" style="ellipse;whiteSpace=wrap;html=1;align=center;fontStyle=0" vertex="1" parent="1">
          <mxGeometry x="760" y="490" width="70" height="40" as="geometry" />
        </mxCell>
        <mxCell id="jeg0a33iSLmDCc6YFEvt-33" style="edgeStyle=none;curved=1;rounded=0;orthogonalLoop=1;jettySize=auto;html=1;fontSize=12;startSize=8;endSize=8;endArrow=none;endFill=0;" edge="1" parent="1" source="jeg0a33iSLmDCc6YFEvt-31" target="jeg0a33iSLmDCc6YFEvt-3">
          <mxGeometry relative="1" as="geometry" />
        </mxCell>
        <mxCell id="jeg0a33iSLmDCc6YFEvt-31" value="phone" style="ellipse;whiteSpace=wrap;html=1;align=center;fontStyle=0" vertex="1" parent="1">
          <mxGeometry x="490" y="470" width="70" height="40" as="geometry" />
        </mxCell>
        <mxCell id="jeg0a33iSLmDCc6YFEvt-38" style="edgeStyle=none;curved=1;rounded=0;orthogonalLoop=1;jettySize=auto;html=1;fontSize=12;startSize=8;endSize=8;endArrow=none;endFill=0;" edge="1" parent="1" source="jeg0a33iSLmDCc6YFEvt-32" target="jeg0a33iSLmDCc6YFEvt-3">
          <mxGeometry relative="1" as="geometry" />
        </mxCell>
        <mxCell id="jeg0a33iSLmDCc6YFEvt-32" value="membership_date" style="ellipse;whiteSpace=wrap;html=1;align=center;fontStyle=0" vertex="1" parent="1">
          <mxGeometry x="725" y="410" width="110" height="40" as="geometry" />
        </mxCell>
        <mxCell id="jeg0a33iSLmDCc6YFEvt-49" style="edgeStyle=none;curved=1;rounded=0;orthogonalLoop=1;jettySize=auto;html=1;fontSize=12;startSize=8;endSize=8;endArrow=none;endFill=0;" edge="1" parent="1" source="jeg0a33iSLmDCc6YFEvt-39" target="jeg0a33iSLmDCc6YFEvt-1">
          <mxGeometry relative="1" as="geometry" />
        </mxCell>
        <mxCell id="jeg0a33iSLmDCc6YFEvt-39" value="loan_id" style="ellipse;whiteSpace=wrap;html=1;align=center;fontStyle=4" vertex="1" parent="1">
          <mxGeometry x="255" y="200" width="70" height="40" as="geometry" />
        </mxCell>
        <mxCell id="jeg0a33iSLmDCc6YFEvt-50" style="edgeStyle=none;curved=1;rounded=0;orthogonalLoop=1;jettySize=auto;html=1;fontSize=12;startSize=8;endSize=8;endArrow=none;endFill=0;" edge="1" parent="1" source="jeg0a33iSLmDCc6YFEvt-40" target="jeg0a33iSLmDCc6YFEvt-1">
          <mxGeometry relative="1" as="geometry" />
        </mxCell>
        <mxCell id="jeg0a33iSLmDCc6YFEvt-40" value="book_id" style="ellipse;whiteSpace=wrap;html=1;align=center;fontStyle=4" vertex="1" parent="1">
          <mxGeometry x="340" y="140" width="70" height="40" as="geometry" />
        </mxCell>
        <mxCell id="jeg0a33iSLmDCc6YFEvt-51" style="edgeStyle=none;curved=1;rounded=0;orthogonalLoop=1;jettySize=auto;html=1;fontSize=12;startSize=8;endSize=8;endArrow=none;endFill=0;" edge="1" parent="1" source="jeg0a33iSLmDCc6YFEvt-41" target="jeg0a33iSLmDCc6YFEvt-1">
          <mxGeometry relative="1" as="geometry" />
        </mxCell>
        <mxCell id="jeg0a33iSLmDCc6YFEvt-41" value="patron_id" style="ellipse;whiteSpace=wrap;html=1;align=center;fontStyle=4" vertex="1" parent="1">
          <mxGeometry x="460" y="140" width="70" height="40" as="geometry" />
        </mxCell>
        <mxCell id="jeg0a33iSLmDCc6YFEvt-52" style="edgeStyle=none;curved=1;rounded=0;orthogonalLoop=1;jettySize=auto;html=1;fontSize=12;startSize=8;endSize=8;endArrow=none;endFill=0;" edge="1" parent="1" source="jeg0a33iSLmDCc6YFEvt-42" target="jeg0a33iSLmDCc6YFEvt-1">
          <mxGeometry relative="1" as="geometry" />
        </mxCell>
        <mxCell id="jeg0a33iSLmDCc6YFEvt-42" value="loan_timestamp" style="ellipse;whiteSpace=wrap;html=1;align=center;fontStyle=0" vertex="1" parent="1">
          <mxGeometry x="540" y="190" width="110" height="40" as="geometry" />
        </mxCell>
        <mxCell id="jeg0a33iSLmDCc6YFEvt-47" style="edgeStyle=none;curved=1;rounded=0;orthogonalLoop=1;jettySize=auto;html=1;fontSize=12;startSize=8;endSize=8;endArrow=none;endFill=0;" edge="1" parent="1" source="jeg0a33iSLmDCc6YFEvt-43" target="jeg0a33iSLmDCc6YFEvt-1">
          <mxGeometry relative="1" as="geometry" />
        </mxCell>
        <mxCell id="jeg0a33iSLmDCc6YFEvt-43" value="due_date" style="ellipse;whiteSpace=wrap;html=1;align=center;fontStyle=0" vertex="1" parent="1">
          <mxGeometry x="410" y="360" width="70" height="40" as="geometry" />
        </mxCell>
        <mxCell id="jeg0a33iSLmDCc6YFEvt-48" style="edgeStyle=none;curved=1;rounded=0;orthogonalLoop=1;jettySize=auto;html=1;fontSize=12;startSize=8;endSize=8;endArrow=none;endFill=0;" edge="1" parent="1" source="jeg0a33iSLmDCc6YFEvt-44" target="jeg0a33iSLmDCc6YFEvt-1">
          <mxGeometry relative="1" as="geometry" />
        </mxCell>
        <mxCell id="jeg0a33iSLmDCc6YFEvt-44" value="return_date" style="ellipse;whiteSpace=wrap;html=1;align=center;fontStyle=0" vertex="1" parent="1">
          <mxGeometry x="280" y="340" width="90" height="40" as="geometry" />
        </mxCell>
        <mxCell id="jeg0a33iSLmDCc6YFEvt-46" style="edgeStyle=none;curved=1;rounded=0;orthogonalLoop=1;jettySize=auto;html=1;fontSize=12;startSize=8;endSize=8;endArrow=none;endFill=0;" edge="1" parent="1" source="jeg0a33iSLmDCc6YFEvt-45" target="jeg0a33iSLmDCc6YFEvt-1">
          <mxGeometry relative="1" as="geometry" />
        </mxCell>
        <mxCell id="jeg0a33iSLmDCc6YFEvt-45" value="status" style="ellipse;whiteSpace=wrap;html=1;align=center;fontStyle=0" vertex="1" parent="1">
          <mxGeometry x="510" y="350" width="70" height="40" as="geometry" />
        </mxCell>
      </root>
    </mxGraphModel>
  </diagram>
</mxfile>
